# xmcd
# Copyright (C) 1995-1998 Ti Kan
#
# Track frame offsets:
#       150
#       15004
#       28928
#       51800
#       86825
#       121146
#       153764
#       169154
#       191771
#
# Disc length: 3050 seconds
#
# Revision: 0
# Processed by: cddbd v1.5.2PL0 Copyright (c) Steve Scherf et al.
# Submitted via: CD-Import v1.0
#
DISCID=650be809
DTITLE=Siegenthaler Stefan - 
DYEAR=08
DGENRE=
TTITLE0=Layout Juni 1
TTITLE1=Layout Juni 2
TTITLE2=Layout Juni 3
TTITLE3=Layout Juni 4
TTITLE4=Layout Juni 5
TTITLE5=Layout Juni 6
TTITLE6=Layout Juni 7
TTITLE7=Layout Juni 8
TTITLE8=Layout Juni 9
EXTD=
EXTT0=
EXTT1=
EXTT2=
EXTT3=
EXTT4=
EXTT5=
EXTT6=
EXTT7=
EXTT8=
PLAYORDER=
